<svg width="222" height="259" viewBox="0 0 222 259" fill="none" xmlns="http://www.w3.org/2000/svg">
<path d="M37 115C36.963 115 36.8558 115.017 36.8889 115C40.3738 113.258 43.3866 109.918 46 107.222C61.4019 91.334 76.8986 75.1326 91.6111 58.6111C101.571 47.4269 110.724 35.3246 118.556 22.5556C121.806 17.2555 125.043 11.8914 127.944 6.38889C128.652 5.04665 128.346 2.72349 129.778 2.22222C131.854 1.49551 144.485 27.3044 145.222 28.7222C159.431 56.0565 171.008 85.0846 187.611 111.111C192.005 118 197.268 124.004 202.222 130.444C204.447 133.336 207.849 137.326 208.333 141.111C208.649 143.576 203.217 140.9 201 139.778C189.513 133.965 177.536 130.556 164.889 128.222C124.494 120.768 82.1385 124.595 41.3333 124.556C29.4097 124.544 17.418 124 5.5 124C4.56619 124 1.98498 123.577 1.77778 124.889C1.19825 128.559 4.93839 133.69 6 137.111C7.42833 141.713 8.14982 146.028 8.38889 150.889C9.27608 168.928 8.96951 187.058 9 205.111C9.02088 217.471 10.3943 233.016 6.77778 245.222C5.85879 248.324 2.30927 254.756 6.66667 255.944C18.7538 259.241 35.246 254.764 47.2222 252.333C69.6928 247.772 92.7453 246.748 115.444 243.444C126.141 241.888 136.936 238.685 147.722 238C165.363 236.88 183.055 237 200.722 237C205.734 237 210.766 237.111 215.778 237C220.795 236.889 219.898 217.816 220.111 214.333C220.896 201.51 215.957 187.567 212 175.556C207.997 163.405 204 151.654 204 139" stroke="black" stroke-width="3" stroke-linecap="round"/>
</svg>
