<svg width="219" height="184" viewBox="0 0 219 184" fill="none" xmlns="http://www.w3.org/2000/svg">
<path d="M48 53C42.9468 47.9468 35.1339 46.408 28.1111 47.2222C19.489 48.2219 -2.59099 55.1079 2.38888 68.0556C5.78127 76.8758 23.0481 88.4072 31.0555 79.2222C35.3923 74.2477 37.9825 68.546 39.4444 62.1667C39.5458 61.7245 41.1319 53.722 40.9444 56.7222C40.3931 65.5442 37.6714 77.6833 41.4444 86.2222C44.0489 92.1165 54.4673 88.9124 58 85.7778C72.6472 72.781 79.5098 56.4914 85 38.1111C85.7355 35.6488 96.8998 4.45411 91.5555 1.88889C88.3479 0.349216 77.7198 39.9655 77.2778 41.6667C73.3538 56.7679 70.0822 71.7723 68.5 87.2778C68.1092 91.1079 65.2597 107.276 71.6667 98.3333C79.3186 87.6525 85.9609 76.0782 91.8333 64.3333C95.455 57.0899 101.294 62.5415 106.111 66.3333C113.199 71.9135 113.613 81.0875 112.944 89.4444C112.395 96.3077 112.479 97.8504 120.556 98C122.886 98.0432 125.714 98.2921 127.556 96.5556C129.029 95.1666 129.021 93.6249 131 93C133.353 92.257 136.324 85.7235 137.778 83.7778C140.592 80.0108 142.714 74.7433 146.444 71.7778C149.299 69.5091 153.6 69.5529 156.222 67.2222C162.416 61.7167 143.201 77.4958 137.056 83.0556C132.562 87.1211 121.131 102.104 130.222 106C151.588 115.157 178.44 103.37 176.944 77.9444C176.442 69.4047 168.951 69.4204 162.444 71.7778C160.911 72.3334 156.156 73.1676 157.667 75.6667C159.111 78.0551 162.092 80.723 165 81C170.243 81.4993 175.742 81 181 81C183.636 81 186.623 81.3685 189.222 80.7778C191.177 80.3336 193.138 76.5826 194.556 78C195.712 79.1566 192.93 81.113 193.222 82.7222C193.883 86.3541 197.147 78.4447 197.444 77.7222C197.737 77.011 197.102 88.9357 197.056 91.0556C196.742 105.48 196.622 119.807 194.944 134.167C193.565 145.976 191.51 157.715 188.5 169.222C187.193 174.22 184.955 178.911 180.111 181.333C174.518 184.13 161.358 174.174 157.222 171.167C151.305 166.863 148.073 161.315 147.667 154C146.973 141.517 163.728 131.435 172.778 125.222C177.51 121.973 183.363 121.09 188.556 118.778C194.482 116.139 199.88 112.207 205.222 108.556C209.051 105.939 213.939 102.505 217.222 99.2222C218.314 98.1303 210.971 89.5894 210 87" stroke="black" stroke-width="3" stroke-linecap="round"/>
</svg>
